<svg width="21" height="15" viewBox="0 0 21 15" fill="none" xmlns="http://www.w3.org/2000/svg">
<path d="M9.75293 14.5527C8.50781 14.5527 7.88525 14.1328 7.88525 13.293C7.88525 12.7949 8.03418 12.2725 8.33203 11.7256C8.63477 11.1787 9.06689 10.6685 9.62842 10.1948C10.1948 9.72119 10.8735 9.33789 11.6646 9.04492C12.4556 8.74707 13.3418 8.59814 14.3232 8.59814C15.3047 8.59814 16.1909 8.74707 16.9819 9.04492C17.7778 9.33789 18.4565 9.72119 19.0181 10.1948C19.5796 10.6685 20.0093 11.1787 20.3071 11.7256C20.6099 12.2725 20.7612 12.7949 20.7612 13.293C20.7612 14.1328 20.1362 14.5527 18.8862 14.5527H9.75293ZM9.51123 13.2856H19.1279C19.2158 13.2856 19.2769 13.271 19.311 13.2417C19.3501 13.2124 19.3696 13.1636 19.3696 13.0952C19.3696 12.812 19.2598 12.4897 19.04 12.1284C18.8203 11.7622 18.4932 11.4082 18.0586 11.0664C17.6289 10.7197 17.0991 10.4341 16.4692 10.2095C15.8442 9.97998 15.1289 9.86523 14.3232 9.86523C13.5127 9.86523 12.7949 9.97998 12.1699 10.2095C11.5449 10.4341 11.0176 10.7197 10.5879 11.0664C10.1582 11.4082 9.83105 11.7622 9.60645 12.1284C9.38672 12.4897 9.27686 12.812 9.27686 13.0952C9.27686 13.1636 9.29395 13.2124 9.32812 13.2417C9.36719 13.271 9.42822 13.2856 9.51123 13.2856ZM14.3232 7.74121C13.7373 7.74121 13.2002 7.58496 12.7119 7.27246C12.2285 6.95996 11.8428 6.54248 11.5547 6.02002C11.2666 5.49268 11.1226 4.91162 11.1226 4.27686C11.1226 3.65186 11.2666 3.08301 11.5547 2.57031C11.8428 2.05273 12.2285 1.64014 12.7119 1.33252C13.2002 1.0249 13.7373 0.871094 14.3232 0.871094C14.9189 0.871094 15.4585 1.02246 15.9419 1.3252C16.4302 1.62793 16.8159 2.03564 17.0991 2.54834C17.3872 3.06104 17.5312 3.63232 17.5312 4.26221C17.5312 4.90186 17.3872 5.48535 17.0991 6.0127C16.811 6.54004 16.4229 6.95996 15.9346 7.27246C15.4512 7.58496 14.9141 7.74121 14.3232 7.74121ZM14.3232 6.4668C14.6699 6.4668 14.9849 6.36914 15.2681 6.17383C15.5513 5.97852 15.7783 5.71484 15.9492 5.38281C16.1201 5.0459 16.2056 4.67236 16.2056 4.26221C16.2056 3.86182 16.1201 3.50049 15.9492 3.17822C15.7783 2.85596 15.5513 2.60205 15.2681 2.4165C14.9849 2.23096 14.6699 2.13818 14.3232 2.13818C13.9863 2.13818 13.6763 2.2334 13.3931 2.42383C13.1099 2.60937 12.8828 2.86572 12.7119 3.19287C12.541 3.51514 12.4556 3.87646 12.4556 4.27686C12.4556 4.68701 12.541 5.05811 12.7119 5.39014C12.8828 5.72217 13.1099 5.98584 13.3931 6.18115C13.6812 6.37158 13.9912 6.4668 14.3232 6.4668ZM1.80615 14.5527C1.28369 14.5527 0.890625 14.4429 0.626953 14.2231C0.363281 14.0034 0.231445 13.6738 0.231445 13.2344C0.231445 12.6289 0.375488 12.0479 0.663574 11.4912C0.956543 10.9297 1.35938 10.4316 1.87207 9.99707C2.38477 9.5625 2.98047 9.2207 3.65918 8.97168C4.33789 8.71777 5.06299 8.59082 5.83447 8.59082C6.21533 8.59082 6.59375 8.625 6.96973 8.69336C7.3457 8.75684 7.70947 8.85449 8.06104 8.98633C8.41748 9.11816 8.75195 9.2793 9.06445 9.46973C8.86426 9.60156 8.68604 9.74561 8.52979 9.90186C8.37354 10.0532 8.23682 10.2168 8.11963 10.3926C7.90479 10.2705 7.67285 10.1704 7.42383 10.0923C7.1748 10.0093 6.91602 9.9458 6.64746 9.90186C6.37891 9.85303 6.10791 9.82861 5.83447 9.82861C5.25342 9.82861 4.70166 9.92139 4.1792 10.1069C3.66162 10.2876 3.20264 10.5342 2.80225 10.8467C2.40674 11.1543 2.09424 11.5059 1.86475 11.9014C1.64014 12.292 1.52783 12.6973 1.52783 13.1172C1.52783 13.1855 1.54248 13.2344 1.57178 13.2637C1.60596 13.293 1.65967 13.3076 1.73291 13.3076H6.88184C6.85742 13.5518 6.90381 13.791 7.021 14.0254C7.13818 14.2646 7.29688 14.4404 7.49707 14.5527H1.80615ZM5.8418 7.82178C5.3291 7.82178 4.86035 7.68506 4.43555 7.41162C4.01562 7.13818 3.67871 6.77197 3.4248 6.31299C3.17578 5.84912 3.05127 5.33643 3.05127 4.7749C3.05127 4.22803 3.17578 3.72998 3.4248 3.28076C3.67871 2.82666 4.01562 2.46533 4.43555 2.19678C4.86035 1.92334 5.3291 1.78662 5.8418 1.78662C6.35449 1.78662 6.8208 1.9209 7.24072 2.18945C7.66553 2.45801 8.00244 2.81689 8.25146 3.26611C8.50537 3.71533 8.63232 4.21582 8.63232 4.76758C8.63232 5.32422 8.50537 5.83691 8.25146 6.30566C7.99756 6.76953 7.66064 7.13818 7.24072 7.41162C6.8208 7.68506 6.35449 7.82178 5.8418 7.82178ZM5.8418 6.56934C6.12012 6.56934 6.37646 6.48877 6.61084 6.32764C6.84521 6.1665 7.0332 5.95166 7.1748 5.68311C7.31641 5.40967 7.38721 5.10449 7.38721 4.76758C7.38721 4.44043 7.31641 4.14746 7.1748 3.88867C7.03809 3.625 6.85254 3.41748 6.61816 3.26611C6.38379 3.11475 6.125 3.03906 5.8418 3.03906C5.55859 3.03906 5.2998 3.11719 5.06543 3.27344C4.83594 3.4248 4.65039 3.63232 4.50879 3.896C4.37207 4.15967 4.30371 4.45264 4.30371 4.7749C4.30371 5.10693 4.37207 5.40967 4.50879 5.68311C4.65039 5.95654 4.83838 6.17383 5.07275 6.33496C5.30713 6.49121 5.56348 6.56934 5.8418 6.56934Z" fill="#0E1022"/>
</svg>
