<svg width="17" height="17" viewBox="0 0 17 17" fill="none" xmlns="http://www.w3.org/2000/svg">
<path d="M7.76025 16.6587C7.45752 16.6587 7.19385 16.5732 6.96924 16.4023C6.74951 16.2314 6.60547 15.9995 6.53711 15.7065L6.23682 14.4102L6.03906 14.3442L4.91846 15.0327C4.66455 15.1938 4.396 15.2549 4.11279 15.2158C3.83447 15.1816 3.58789 15.0571 3.37305 14.8423L2.34766 13.8242C2.12793 13.6045 2.00098 13.3555 1.9668 13.0771C1.93262 12.7988 1.99609 12.5327 2.15723 12.2788L2.86035 11.1582L2.79443 10.9751L1.49805 10.6748C1.20996 10.6064 0.978027 10.46 0.802246 10.2354C0.631348 10.0107 0.545898 9.74951 0.545898 9.45166V8.00879C0.545898 7.71094 0.631348 7.45215 0.802246 7.23242C0.973145 7.00781 1.20508 6.85889 1.49805 6.78564L2.77979 6.47803L2.85303 6.28027L2.1499 5.15967C1.98877 4.91064 1.92529 4.64697 1.95947 4.36865C1.99365 4.09033 2.12061 3.84131 2.34033 3.62158L3.36572 2.59619C3.58057 2.38135 3.82715 2.25684 4.10547 2.22266C4.38379 2.18359 4.6499 2.24219 4.90381 2.39844L6.03174 3.09424L6.23682 3.01367L6.53711 1.71729C6.60547 1.4292 6.74951 1.19971 6.96924 1.02881C7.19385 0.853027 7.45752 0.765137 7.76025 0.765137H9.24707C9.5498 0.765137 9.81104 0.853027 10.0308 1.02881C10.2505 1.19971 10.3945 1.4292 10.4629 1.71729L10.7632 3.01367L10.9683 3.09424L12.0962 2.39844C12.3501 2.24219 12.6162 2.18359 12.8945 2.22266C13.1777 2.25684 13.4243 2.38135 13.6343 2.59619L14.6597 3.62158C14.8745 3.84131 14.999 4.09033 15.0332 4.36865C15.0723 4.64697 15.0112 4.91064 14.8501 5.15967L14.147 6.28027L14.2275 6.47803L15.502 6.78564C15.79 6.854 16.0195 7.00049 16.1904 7.2251C16.3662 7.44971 16.4541 7.71094 16.4541 8.00879V9.45166C16.4541 9.74951 16.3662 10.0107 16.1904 10.2354C16.0195 10.4551 15.79 10.6016 15.502 10.6748L14.2129 10.9751L14.1396 11.1582L14.8428 12.2788C15.0039 12.5327 15.0649 12.7988 15.0259 13.0771C14.9917 13.3555 14.8672 13.6045 14.6523 13.8242L13.627 14.8423C13.4121 15.0571 13.1631 15.1816 12.8799 15.2158C12.6016 15.2549 12.3354 15.1938 12.0815 15.0327L10.9536 14.3442L10.7632 14.4102L10.4629 15.7065C10.3945 15.9995 10.2505 16.2314 10.0308 16.4023C9.81104 16.5732 9.5498 16.6587 9.24707 16.6587H7.76025ZM7.94336 15.333H9.06396C9.18115 15.333 9.24707 15.2769 9.26172 15.1646L9.70117 13.3628C9.94531 13.3091 10.1724 13.2383 10.3823 13.1504C10.5923 13.0576 10.7876 12.9551 10.9683 12.8428L12.543 13.8096C12.6357 13.873 12.7261 13.8633 12.814 13.7803L13.5903 12.9966C13.6685 12.9282 13.6758 12.8403 13.6123 12.7329L12.6455 11.1655C12.748 10.9897 12.8433 10.7944 12.9312 10.5796C13.0239 10.3647 13.0972 10.1426 13.1509 9.91309L14.96 9.48096C15.0723 9.46143 15.1284 9.39307 15.1284 9.27588V8.17725C15.1284 8.06494 15.0723 7.99658 14.96 7.97217L13.1582 7.54004C13.0996 7.2959 13.0215 7.06396 12.9238 6.84424C12.8311 6.62451 12.7407 6.43652 12.6528 6.28027L13.6196 4.70557C13.688 4.60303 13.6807 4.51025 13.5977 4.42725L12.8213 3.66553C12.7383 3.5874 12.6455 3.5752 12.543 3.62891L10.9683 4.58838C10.7876 4.48584 10.5898 4.39062 10.375 4.30273C10.165 4.20996 9.94043 4.13428 9.70117 4.07568L9.26172 2.25928C9.24707 2.14697 9.18115 2.09082 9.06396 2.09082H7.94336C7.82129 2.09082 7.75049 2.14697 7.73096 2.25928L7.30615 4.06104C7.07178 4.11963 6.83984 4.19775 6.61035 4.29541C6.38574 4.38818 6.19043 4.4834 6.02441 4.58105L4.44971 3.62891C4.35205 3.5752 4.26172 3.58496 4.17871 3.6582L3.39502 4.42725C3.31689 4.51025 3.30957 4.60303 3.37305 4.70557L4.33984 6.28027C4.25684 6.43652 4.1665 6.62451 4.06885 6.84424C3.97119 7.06396 3.89551 7.2959 3.8418 7.54004L2.04004 7.97217C1.92773 7.99658 1.87158 8.06494 1.87158 8.17725V9.27588C1.87158 9.39307 1.92773 9.46143 2.04004 9.48096L3.8418 9.90576C3.90039 10.1401 3.97607 10.3647 4.06885 10.5796C4.16162 10.7896 4.25684 10.9849 4.35449 11.1655L3.38037 12.7402C3.32178 12.8428 3.3291 12.9307 3.40234 13.0039L4.18604 13.7803C4.27393 13.8633 4.36182 13.8755 4.44971 13.8169L6.03174 12.8428C6.2124 12.9551 6.41016 13.0576 6.625 13.1504C6.84473 13.2383 7.06934 13.3091 7.29883 13.3628L7.73096 15.1646C7.75049 15.2769 7.82129 15.333 7.94336 15.333ZM8.5 11.4951C7.99219 11.4951 7.52588 11.3706 7.10107 11.1216C6.68115 10.8677 6.34424 10.5308 6.09033 10.1108C5.84131 9.69092 5.7168 9.22461 5.7168 8.71191C5.7168 8.2041 5.84131 7.74023 6.09033 7.32031C6.34424 6.90039 6.68115 6.56592 7.10107 6.31689C7.52588 6.06787 7.99219 5.94336 8.5 5.94336C9.0127 5.94336 9.479 6.06787 9.89893 6.31689C10.3188 6.56592 10.6533 6.90039 10.9023 7.32031C11.1514 7.74023 11.2759 8.2041 11.2759 8.71191C11.2759 9.21973 11.1514 9.68604 10.9023 10.1108C10.6533 10.5356 10.3188 10.8726 9.89893 11.1216C9.479 11.3706 9.0127 11.4951 8.5 11.4951ZM8.5 10.2354C8.77344 10.2354 9.0249 10.167 9.25439 10.0303C9.48389 9.88867 9.66455 9.70312 9.79639 9.47363C9.93311 9.24414 10.0015 8.99023 10.0015 8.71191C10.0015 8.43359 9.93311 8.18213 9.79639 7.95752C9.66455 7.72803 9.48389 7.54492 9.25439 7.4082C9.0249 7.27148 8.77344 7.20312 8.5 7.20312C8.22168 7.20312 7.96777 7.27148 7.73828 7.4082C7.50879 7.54492 7.32568 7.72803 7.18896 7.95752C7.05225 8.18213 6.98389 8.43359 6.98389 8.71191C6.98389 8.99512 7.05225 9.25146 7.18896 9.48096C7.32568 9.71045 7.50879 9.89355 7.73828 10.0303C7.96777 10.167 8.22168 10.2354 8.5 10.2354Z" fill="#0E1022"/>
</svg>
